<?xml version="1.0" standalone="no"?>
<!DOCTYPE svg PUBLIC "-//W3C//DTD SVG 20010904//EN"
 "http://www.w3.org/TR/2001/REC-SVG-20010904/DTD/svg10.dtd">
<svg version="1.0" xmlns="http://www.w3.org/2000/svg"
 width="1250.000000pt" height="455.000000pt" viewBox="0 0 1250.000000 455.000000"
 preserveAspectRatio="xMidYMid meet">
<metadata>
Created by potrace 1.16, written by Peter Selinger 2001-2019
</metadata>
<g transform="translate(0.000000,455.000000) scale(0.100000,-0.100000)"
fill="#000000" stroke="none">
<path d="M650 4281 c-106 -25 -143 -43 -206 -103 -115 -109 -194 -265 -194
-383 0 -171 123 -361 284 -440 305 -150 687 48 738 383 37 236 -127 475 -370
541 -93 25 -151 25 -252 2z"/>
<path d="M2045 4239 c-82 -4 -202 -12 -265 -18 -63 -7 -169 -16 -234 -22 -121
-11 -166 -21 -166 -38 0 -16 27 -31 45 -25 15 6 15 4 4 -14 -11 -18 -10 -32 9
-94 13 -40 26 -84 30 -98 4 -14 18 -27 32 -31 14 -4 19 -7 12 -8 -7 -1 -24
-12 -37 -26 -20 -19 -25 -34 -25 -75 0 -115 -30 -209 -126 -394 -20 -39 -23
-51 -12 -57 28 -18 68 -9 106 25 l38 34 74 -29 c41 -17 80 -34 86 -40 26 -21
131 -49 187 -49 48 0 74 -7 133 -35 40 -19 101 -43 136 -52 l63 -16 71 36
c107 54 115 75 34 92 -19 4 -66 16 -105 28 -90 28 -61 33 94 17 154 -15 329
-46 409 -70 82 -26 106 -26 65 0 -36 21 -39 30 -21 48 40 40 238 -44 238 -102
0 -13 11 -27 29 -37 16 -9 46 -39 67 -67 53 -69 125 -168 148 -205 l19 -29
-22 7 c-13 4 -31 1 -44 -8 -12 -8 -60 -31 -106 -51 -98 -42 -131 -69 -131
-106 0 -15 -10 -40 -21 -54 -18 -23 -20 -30 -8 -40 21 -20 123 -57 156 -58 28
-1 113 38 113 52 0 3 -17 12 -37 19 -84 30 -163 71 -163 84 0 14 90 60 145 73
17 4 49 20 73 36 32 22 42 25 42 14 0 -9 12 -18 28 -22 89 -20 162 -53 162
-75 0 -6 -17 -17 -37 -26 -50 -20 -173 -102 -173 -114 0 -22 36 -20 108 9 97
38 169 47 263 33 254 -40 491 -213 576 -421 12 -30 27 -55 33 -55 13 0 90 182
139 325 113 333 168 703 160 1072 -5 203 -5 204 -101 267 -303 201 -847 345
-1473 391 -156 11 -591 11 -820 -1z"/>
<path d="M6588 3790 c-207 -70 -362 -204 -453 -394 -49 -102 -68 -192 -67
-316 3 -460 390 -814 830 -760 289 36 529 231 623 508 31 92 33 105 33 237 0
126 -3 148 -28 225 -49 149 -136 280 -244 366 -60 47 -228 134 -297 153 -22 6
-101 11 -175 11 -123 0 -143 -3 -222 -30z m308 -486 c55 -26 129 -104 137
-143 15 -72 8 -183 -14 -227 -23 -48 -89 -98 -153 -115 -116 -31 -264 44 -314
160 -8 20 -15 63 -15 96 -1 181 196 306 359 229z"/>
<path d="M8225 3810 c-236 -42 -428 -179 -524 -373 -49 -99 -69 -181 -77 -307
-9 -146 12 -238 86 -388 51 -102 72 -134 133 -195 77 -78 184 -150 288 -194
62 -27 69 -28 259 -28 143 0 204 4 228 14 l32 13 0 274 c0 151 -3 274 -7 274
-3 0 -21 -11 -39 -25 -34 -26 -146 -55 -213 -55 -59 0 -134 27 -176 64 -53 45
-98 136 -103 206 -7 110 77 215 193 241 81 18 154 2 313 -68 9 -4 12 43 12
215 0 275 -4 310 -39 324 -33 14 -301 20 -366 8z"/>
<path d="M4908 3791 c-69 -3 -129 -8 -131 -11 -10 -10 -27 -694 -27 -1067 l0
-383 240 0 240 0 0 219 c0 121 3 222 8 224 7 5 71 -95 197 -311 l77 -132 262
2 261 3 3 35 c2 30 -14 60 -111 210 -124 192 -182 287 -190 316 -5 14 5 26 39
48 106 67 158 135 194 255 18 59 22 90 18 174 -3 90 -8 110 -36 169 -56 116
-157 201 -273 232 -65 16 -558 28 -771 17z m475 -382 c110 -30 157 -157 93
-254 -25 -38 -76 -55 -165 -55 l-81 0 0 160 0 160 58 0 c31 0 74 -5 95 -11z"/>
<path d="M9454 3703 c-31 -54 -93 -156 -138 -228 l-81 -129 -3 217 -2 217
-224 0 c-124 0 -231 -3 -240 -6 -14 -6 -16 -79 -16 -725 l0 -719 240 0 240 0
0 243 1 242 28 -31 c15 -17 52 -73 80 -125 29 -52 85 -142 123 -201 l71 -108
211 1 c116 0 230 4 254 7 l42 7 -157 235 c-86 129 -191 290 -234 356 l-77 122
132 203 c73 112 176 270 229 351 53 81 97 151 97 157 0 8 -82 11 -259 11
l-260 0 -57 -97z"/>
<path d="M10112 3068 l3 -713 503 -3 502 -2 0 195 0 195 -260 0 -260 0 0 80 0
80 210 0 210 0 0 180 0 180 -209 0 c-146 0 -212 3 -217 11 -4 7 -9 43 -12 80
l-5 69 272 0 271 0 0 180 0 180 -505 0 -505 0 2 -712z"/>
<path d="M11240 3600 l0 -180 120 0 120 0 0 -535 0 -535 250 0 250 0 0 535 0
535 135 0 135 0 0 180 0 180 -505 0 -505 0 0 -180z"/>
<path d="M1365 3303 c-80 -7 -83 -9 -102 -71 -19 -62 -23 -226 -6 -243 6 -6
19 -5 36 4 24 12 25 16 12 27 -8 7 -15 16 -15 21 0 16 18 10 47 -16 24 -21 25
-24 9 -25 -26 0 -12 -13 17 -15 17 -1 23 -9 25 -33 2 -18 8 -30 13 -27 16 10
10 45 -13 76 -22 30 -29 89 -14 120 5 12 -2 22 -28 39 -42 25 -45 43 -12 65
19 12 138 44 169 45 4 0 7 4 7 10 0 10 -66 31 -90 28 -8 -1 -33 -3 -55 -5z"/>
<path d="M2358 3231 c-38 -13 -138 -81 -138 -94 0 -7 15 -39 34 -72 l33 -60
209 0 c115 0 216 3 225 7 15 6 13 17 -14 106 -31 99 -32 100 -67 106 -66 11
-255 16 -282 7z"/>
<path d="M370 3193 c0 -27 47 -319 65 -403 69 -327 168 -466 398 -561 91 -38
291 -90 472 -124 342 -64 641 -168 926 -324 404 -220 728 -508 852 -757 44
-88 77 -184 77 -224 0 -52 29 -36 134 72 301 313 523 605 637 840 88 184 55
239 -155 258 -57 5 -125 14 -152 21 -79 19 -185 74 -248 129 l-59 52 -31 -35
c-42 -47 -64 -57 -133 -57 -66 0 -143 31 -181 73 -13 13 -36 55 -50 92 l-28
66 -121 54 c-66 30 -144 68 -173 86 -43 26 -67 33 -143 41 -66 7 -104 16 -134
34 -23 13 -44 24 -46 24 -3 0 -17 -25 -32 -55 -55 -114 -179 -201 -285 -199
-99 1 -208 76 -275 189 -26 45 -30 61 -33 151 l-4 101 -34 17 c-47 22 -80 20
-142 -9 -30 -14 -69 -25 -86 -25 -43 0 -148 53 -196 99 -48 46 -60 89 -60 226
0 61 -4 116 -9 123 -10 17 -62 8 -151 -26 -51 -20 -89 -26 -181 -30 -132 -5
-233 15 -347 68 -76 35 -72 35 -72 13z"/>
<path d="M1875 3071 c3 -5 21 -15 40 -21 64 -21 40 -32 -54 -25 -104 9 -125 1
-127 -46 -3 -49 -54 -93 -97 -83 -18 3 -34 8 -36 10 -3 2 3 30 13 62 30 98 29
100 -18 47 l-45 -50 -50 55 -51 55 0 -30 c0 -17 8 -46 19 -65 18 -34 18 -36 0
-72 -11 -21 -26 -38 -34 -38 -9 0 -42 13 -74 30 -32 16 -61 26 -65 23 -14 -15
-4 -53 22 -81 33 -35 91 -53 179 -56 51 -1 65 3 86 22 18 17 41 25 83 29 46 4
71 13 114 43 76 52 92 59 152 70 37 7 69 7 106 -1 30 -6 56 -9 58 -6 13 13
-24 57 -69 85 -67 39 -168 68 -152 43z"/>
<path d="M2422 2963 l-84 -4 34 -37 c18 -20 40 -48 49 -62 l16 -24 48 32 c64
42 124 59 240 68 115 8 136 24 32 24 -41 0 -114 2 -163 4 -49 2 -126 1 -172
-1z"/>
<path d="M2120 2935 c0 -3 28 -33 63 -68 69 -68 87 -108 87 -195 0 -39 4 -53
18 -60 39 -20 122 -45 128 -39 4 3 -8 26 -25 49 -17 24 -63 91 -101 150 -66
100 -129 168 -157 168 -7 0 -13 -2 -13 -5z"/>
<path d="M3350 2613 c-53 -9 -55 -12 -23 -46 56 -59 67 -144 34 -253 l-18 -62
56 -26 c78 -36 116 -43 279 -56 181 -14 244 -25 277 -46 14 -9 28 -14 32 -11
12 13 -21 133 -48 178 -34 54 -143 161 -212 208 -127 86 -275 131 -377 114z"/>
<path d="M8882 2264 c-278 -75 -487 -278 -562 -549 -19 -68 -22 -97 -18 -210
4 -115 8 -140 36 -214 100 -266 320 -458 566 -493 110 -16 318 -4 396 22 106
35 181 81 256 155 80 80 121 145 160 260 25 72 28 98 32 248 l4 167 -351 0
-351 0 0 -179 0 -179 95 -4 c111 -4 131 -15 95 -53 -13 -14 -48 -37 -77 -52
-47 -22 -63 -25 -122 -21 -177 13 -279 145 -269 347 5 101 28 160 83 216 51
51 112 76 200 82 91 7 152 -7 220 -53 29 -19 56 -34 60 -34 11 0 315 301 315
312 0 25 -169 141 -264 181 -146 61 -379 85 -504 51z"/>
<path d="M5950 1530 l0 -720 747 2 748 3 17 60 c9 33 17 81 17 108 l1 47 202
-2 202 -3 20 -97 19 -98 238 0 c185 0 239 3 239 13 0 12 -191 580 -381 1135
l-94 272 -243 -2 -244 -3 -135 -390 c-74 -214 -172 -500 -217 -634 l-82 -244
-43 97 -44 96 -258 0 -259 0 0 80 0 80 220 0 220 0 0 180 0 180 -220 0 -220 0
0 80 0 80 228 0 c212 1 303 8 320 25 4 3 8 90 10 191 l3 184 -505 0 -506 0 0
-720z m1802 -90 l3 -45 -69 -3 c-38 -2 -73 1 -78 6 -7 7 45 260 69 337 8 24
72 -226 75 -295z"/>
<path d="M9850 1751 l0 -499 35 -84 c107 -254 309 -388 585 -388 272 0 472
124 594 366 69 140 71 151 71 529 0 187 -4 393 -9 458 l-8 117 -239 0 -239 0
0 -257 c0 -338 -16 -630 -36 -660 -35 -54 -133 -73 -194 -37 -18 10 -41 35
-51 54 -18 32 -19 64 -19 467 l0 433 -245 0 -245 0 0 -499z"/>
<path d="M11220 1530 l0 -720 515 0 515 0 0 178 0 179 -232 7 c-128 3 -248 9
-265 12 l-33 6 0 69 0 69 210 2 211 3 0 185 0 185 -211 3 -210 2 0 69 0 69 38
6 c20 3 139 8 265 12 l227 7 0 188 0 189 -515 0 -515 0 0 -720z"/>
<path d="M4790 1501 c0 -502 3 -712 11 -717 6 -3 236 -3 511 1 l501 8 -6 171
c-3 94 -8 179 -12 189 -7 16 -29 17 -266 17 l-259 0 0 520 0 520 -240 0 -240
0 0 -709z"/>
<path d="M911 1811 c-12 -12 -21 -34 -21 -50 0 -62 160 -324 336 -551 138
-178 439 -474 617 -607 133 -98 372 -246 516 -318 l54 -27 62 27 c155 66 426
231 520 316 45 41 58 62 71 107 45 153 -29 299 -249 493 -130 115 -204 168
-341 242 -229 125 -507 234 -776 303 -223 58 -344 75 -566 81 -196 5 -202 5
-223 -16z"/>
</g>
</svg>
