<svg xmlns="http://www.w3.org/2000/svg" xmlns:xlink="http://www.w3.org/1999/xlink" height="512" width="512"><linearGradient id="A" gradientUnits="userSpaceOnUse" x1="8.753" x2="524.202" y1="401.161" y2="103.566"><stop offset="0" stop-color="#d2deff" stop-opacity="0"/><stop offset=".459" stop-color="#cee2fd" stop-opacity=".67"/><stop offset=".685" stop-color="#c9e7fa"/></linearGradient><path d="M418.32 2.5c-55.666-9.52-178.298 12.183-200.004 105.017-14.43 61.722-14.007 112.075-50.427 113.02-21.67.562-32.97-44.3-62.89-48-39.047-4.817-66.145 27.695-83.057 57.138-37.205 64.772-25.57 174.918 23.354 228.632 118.488 130.086 259.197-5.952 319.358-112.31 38.585-68.213 125.637-123.352 143.767-200.248C523.6 81.373 489.92 14.746 418.32 2.5z" fill="url(#A)"/><path d="M415.24 213.887V73.156c0-8.284-6.716-15-15-15H138.37c-8.284 0-15 6.716-15 15v390.692c0 8.284 6.716 15 15 15h261.87c8.284 0 15-6.716 15-15V313.125l.893-.057c24.303-2.063 43.747-21.95 45.306-46.3 1.78-27.783-19.267-51.046-46.2-52.89z" fill="#bae1f8"/><path d="M415.234 48.152v390.7c0 8.28-6.7 15-15 15h-261.86c-8.3 0-15-6.72-15-15v-390.7c0-8.28 6.7-15 15-15h261.86c8.3 0 15 6.72 15 15z" fill="#fff"/><path d="M415.234 212.132v99.27c-11.45.77-22.13-2.35-30.88-8.15l-15.87 7c-3.28 1.44-6.6-1.9-5.17-5.17l6.98-15.87c-5.95-8.98-9.07-20-8.07-31.78 2.07-24.3 21.95-43.75 46.3-45.3 2.27-.15 4.5-.14 6.72.02z" fill="#226191"/><use xlink:href="#C" fill="#2a719b"/><g fill="#a9d2ea"><use xlink:href="#D"/><use xlink:href="#E"/><use xlink:href="#F"/></g><use xlink:href="#C" x="86.5" fill="#2d719b"/><g fill="#a9d2ea"><use xlink:href="#D" x="86.5"/><use xlink:href="#E" x="86.5"/><use xlink:href="#F" x="86.5"/></g><path d="M326.572 415.445H212.037a5 5 0 1 1 0-10h114.535a5 5 0 1 1 0 10z" fill="#73aacf"/><use xlink:href="#C" x="173" fill="#2a719b"/><path d="M390.574 270.992v35.77c-2.16-1.02-4.24-2.2-6.22-3.5l-15.87 7c-3.28 1.44-6.6-1.9-5.17-5.17l6.98-15.87a49.47 49.47 0 0 1-8.07-23.21h23.35c2.76 0 5 2.24 5 5z" fill="#226191"/><g fill="#a9d2ea"><use xlink:href="#D" x="173"/><use xlink:href="#E" x="173"/><use xlink:href="#F" x="173"/></g><path d="M415.24 222.528V48.156c0-8.284-6.716-15-15-15H138.37c-8.284 0-15 6.716-15 15v174.372z" fill="#3e85a9"/><path d="M415.24 94.502V48.156c0-8.284-6.716-15-15-15H138.37c-8.284 0-15 6.716-15 15v46.346z" fill="#226191"/><g fill="#fff"><use xlink:href="#G"/><use xlink:href="#G" x="20.114"/><use xlink:href="#G" x="40.217"/><path d="M376.025 68.83h-41.52a5 5 0 0 1 0-10h41.52a5 5 0 0 1 0 10zm-58.75 0h-6.52a5 5 0 0 1 0-10h6.52a5 5 0 0 1 0 10z"/></g><path d="M368.5 399.788a4.98 4.98 0 0 1 3.535 1.464l5.657 5.656a5 5 0 0 1 .001 7.071l-5.657 5.657a5 5 0 0 1-7.07-7.07l2.12-2.122-2.12-2.12a5 5 0 0 1 0-7.071c.975-.977 2.255-1.465 3.535-1.465zM170.098 421.1a4.98 4.98 0 0 1-3.535-1.464l-5.657-5.656a5 5 0 0 1-.001-7.071l5.657-5.657a5 5 0 0 1 7.07 7.07l-2.12 2.122 2.12 2.12a5 5 0 0 1 0 7.071c-.975.977-2.255 1.465-3.535 1.465zM461.44 246.78c1.925-30.06-22.862-54.848-52.922-52.922-24.34 1.56-44.226 21.004-46.3 45.306-1 11.788 2.122 22.803 8.072 31.78l-6.986 15.866c-1.443 3.277 1.896 6.615 5.173 5.173l15.866-6.986c8.978 5.95 19.993 9.073 31.78 8.072 24.302-2.064 43.746-21.95 45.306-46.3z" fill="#ff7eb8"/><path d="M212 448.85h-73.63c-5.514 0-10-4.486-10-10V48.156c0-5.514 4.486-10 10-10h261.87c5.514 0 10 4.486 10 10v111.756a5 5 0 1 0 10 0V48.156c0-11.028-8.972-20-20-20H138.37c-11.028 0-20 8.972-20 20v390.692c0 11.028 8.972 20 20 20H212a5 5 0 0 0 5-5 5 5 0 0 0-5-4.999zm238.507-244.063c-11.127-11.127-26.552-16.932-42.3-15.92-26.78 1.715-48.684 23.156-50.952 49.874-.982 11.567 1.575 22.783 7.4 32.613l-5.918 13.44c-1.495 3.396-.766 7.284 1.858 9.907s6.512 3.35 9.906 1.856l13.44-5.92a54.08 54.08 0 0 0 26.299 7.592v140.617c0 5.514-4.486 10-10 10H246a5 5 0 1 0 0 10h154.24c11.028 0 20-8.972 20-20v-141.25c24.98-3.873 44.553-24.962 46.2-50.497 1-15.762-4.793-31.184-15.92-42.3zm-34.798 83.3c-10.232.866-20.12-1.642-28.596-7.258a5 5 0 0 0-2.763-.832c-.684 0-1.37.14-2.015.424l-13.332 5.87 5.87-13.333a5 5 0 0 0-.408-4.776c-5.617-8.477-8.126-18.364-7.258-28.596 1.853-21.824 19.75-39.34 41.627-40.74 12.9-.844 25.504 3.916 34.6 13.012s13.838 21.707 13.013 34.6c-1.4 21.877-18.915 39.773-40.74 41.626z" fill="#014073"/><g fill="#fff"><circle cx="392.773" cy="242.918" r="5.59"/><circle cx="412.684" cy="242.918" r="5.59"/><circle cx="432.594" cy="242.918" r="5.59"/></g><path d="M277.366 138.733c-1.48-6.315-4.403-11.65-8.744-16-4.742-4.742-10.664-8.097-17.782-10.078-15.445-4.295-31.94-4.195-47.584-1.002-12.985 2.645-27.366 7.534-35.255 18.93-10.07 14.55-.8 36.905 17.635 36.905 22.925 0 31.93-29.533 12.145-41.786 5.382-2.16 15.63-5.143 25.786-1.96 7.904 2.475 13.325 9.847 13.348 18.128v23.24c0 5.336-2.52 9.538-7.557 12.6-20.843 12.66-50.044 13.633-66.098 33.782-2.6 3.27-4.488 7.032-5.675 11.034h41.254c2.637-11.042 16.03-16.725 22.956-21.16 7.71-4.742 12.746-9.09 15.12-13.047v34.206h42.673v-58c-.003-10.864-.743-19.454-2.223-25.785z" fill="#ff7eb8"/><path d="M330.282 141.412h-66.52a5 5 0 1 1 0-10h66.52a5 5 0 1 1 0 10zm50 18.5h-116.52a5 5 0 1 1 0-10h116.52a5 5 0 1 1 0 10zm0 18.5h-116.52a5 5 0 1 1 0-10h116.52a5 5 0 1 1 0 10z" fill="#fff"/><circle cx="380.787" cy="136.412" fill="#ff7eb8" r="5"/><g fill="#3e85a9"><circle cx="231.983" cy="242.918" r="5"/><circle cx="250.644" cy="242.918" r="5"/><circle cx="269.304" cy="242.918" r="5"/><circle cx="287.965" cy="242.918" r="5"/></g><circle cx="306.625" cy="242.918" fill="#ff7eb8" r="5"/><path d="M287.974 281.532c-14.43 0-26.17 11.74-26.17 26.18 0 7.1 2.86 13.57 7.5 18.3-1.58 1.6-2.95 3.43-4.07 5.4h33.85c2.76 0 5-2.24 5-5v-39.32c-4.44-3.48-10.03-5.55-16.1-5.55zm0 36.6c-5.74 0-10.42-4.68-10.42-10.42 0-5.75 4.68-10.42 10.42-10.42a10.43 10.43 0 0 1 10.42 10.42c0 5.74-4.67 10.42-10.42 10.42zm-114.56-39.8c-5.55 0-10.6 2.24-14.27 5.85-3.54-3.46-8.33-5.67-13.6-5.83v12.3c4.17.34 7.46 3.85 7.46 8.1s-3.3 7.76-7.46 8.1v12.3c5.28-.16 10.07-2.36 13.6-5.82 3.68 3.6 8.72 5.84 14.27 5.84 11.27 0 20.43-9.16 20.43-20.42s-9.16-20.43-20.43-20.43zm0 28.56c-4.48 0-8.13-3.65-8.13-8.13s3.65-8.13 8.13-8.13a8.14 8.14 0 0 1 8.13 8.13 8.14 8.14 0 0 1-8.13 8.13z" fill="#73aacf"/><path d="M61.457 299.01a5 5 0 0 1-5-5 6.01 6.01 0 0 0-6-6 5 5 0 1 1 0-10 6.01 6.01 0 0 0 6-6 5 5 0 0 1 10 0 6.01 6.01 0 0 0 6 6 5 5 0 1 1 0 10 6.01 6.01 0 0 0-6 6 5 5 0 0 1-5 5z" fill="#ff7eb8"/><g fill="#2a719b"><use xlink:href="#H"/><use xlink:href="#H" x="365.727" y="195.1"/></g><g fill="#ff7eb8"><use xlink:href="#H" x="370.727" y="-22.068"/><path d="M83.713 352.402a5 5 0 0 1-5-5 6.01 6.01 0 0 0-6-6 5 5 0 1 1 0-10 6.01 6.01 0 0 0 6-6.001 5 5 0 1 1 10 0 6.01 6.01 0 0 0 6 6.001 5 5 0 1 1 0 10 6.01 6.01 0 0 0-6 6 5 5 0 0 1-5 5z"/></g><defs ><path id="C" d="M217.574 270.992v55.4c0 2.76-2.24 5-5 5h-62.04c-2.76 0-5-2.24-5-5v-55.4c0-2.76 2.24-5 5-5h62.04c2.76 0 5 2.24 5 5z"/><path id="D" d="M177.056 350.715h-26.52a5 5 0 1 1 0-10h26.52a5 5 0 1 1 0 10z"/><path id="E" d="M212.572 350.715h-16.52a5 5 0 1 1 0-10h16.52a5 5 0 1 1 0 10z"/><path id="F" d="M215.072 369.215h-64.535a5 5 0 1 1 0-10h64.535a5 5 0 1 1 0 10z"/><path id="G" d="M162.583 68.887a5 5 0 0 1-5-5v-.115a5 5 0 1 1 10 0v.115a5 5 0 0 1-5 5z"/><path id="H" d="M72.457 154.91c-1.28 0-2.56-.488-3.536-1.465a5 5 0 0 1 0-7.07l10-10a5 5 0 0 1 7.071 7.07l-10 10a4.98 4.98 0 0 1-3.535 1.465z"/></defs></svg>